<svg fill="#FFFFFF" width="100pt" height="100pt" version="1.1" viewBox="0 0 100 100" xmlns="http://www.w3.org/2000/svg">
 <g>
  <path d="m50 0c-13.262 0-25.98 5.2695-35.355 14.645s-14.645 22.094-14.645 35.355 5.2695 25.98 14.645 35.355 22.094 14.645 35.355 14.645 25.98-5.2695 35.355-14.645 14.645-22.094 14.645-35.355c-0.015625-13.258-5.2852-25.965-14.66-35.34s-22.082-14.645-35.34-14.66zm-46.875 50c0.003906-12.25 4.8047-24.016 13.371-32.77 8.5703-8.7578 20.227-13.812 32.473-14.082 12.25-0.26953 24.117 4.2695 33.062 12.641l-7.6953 7.6953-2.0312-2.0312c-0.60938-0.60938-1.6016-0.60938-2.2109 0s-0.60938 1.6016 0 2.2109l2.0312 2.0312-4.4297 4.4297c-0.11719-0.32812-0.23437-0.67188-0.34375-1.0156-0.52344-1.625-1.1172-3.4609-2.7266-4.3828-1.6094-0.92187-3.4531-0.52344-5.1094-0.17187-0.88281 0.26953-1.8125 0.35937-2.7344 0.26562-0.80469-0.375-1.5312-0.90625-2.1328-1.5625-0.89063-0.89062-1.9375-1.6094-3.0859-2.125v-3.9453h2.875c0.86328 0 1.5625-0.69922 1.5625-1.5625s-0.69922-1.5625-1.5625-1.5625h-8.875c-0.86328 0-1.5625 0.69922-1.5625 1.5625s0.69922 1.5625 1.5625 1.5625h2.875v3.9453c-1.1406 0.52344-2.1758 1.2539-3.0547 2.1484-0.60156 0.65625-1.3281 1.1875-2.1328 1.5625-0.92188 0.09375-1.8477 0.003906-2.7344-0.26562-1.6562-0.35156-3.5312-0.78125-5.1094 0.17188s-2.2031 2.7656-2.7266 4.3828c-0.10938 0.34375-0.22656 0.6875-0.34375 1.0156l-4.4297-4.4297 2.0312-2.0312c0.60938-0.60938 0.60938-1.6016 0-2.2109-0.60938-0.60937-1.6016-0.60937-2.2109 0l-6.25 6.25c-0.29297 0.29297-0.45703 0.69141-0.45703 1.1055 0 0.41406 0.16406 0.8125 0.45703 1.1055 0.29297 0.28906 0.6875 0.45312 1.1016 0.45312 0.41406 0.003906 0.81641-0.16016 1.1094-0.45312l2.0312-2.0312 4.4297 4.4297-1.0156 0.34375c-1.625 0.52344-3.4609 1.1172-4.3828 2.7266s-0.52344 3.4531-0.17188 5.1094c0.26953 0.88281 0.35938 1.8125 0.26562 2.7344-0.375 0.80469-0.90625 1.5312-1.5625 2.1328-0.89453 0.87891-1.625 1.9141-2.1484 3.0547h-3.9453v-2.875c0-0.86328-0.69922-1.5625-1.5625-1.5625s-1.5625 0.69922-1.5625 1.5625v8.875c0 0.86328 0.69922 1.5625 1.5625 1.5625s1.5625-0.69922 1.5625-1.5625v-2.875h3.9453c0.52344 1.1406 1.2539 2.1758 2.1484 3.0547 0.65625 0.60156 1.1875 1.3281 1.5625 2.1328 0.09375 0.92188 0.003906 1.8516-0.26562 2.7344-0.35156 1.6562-0.78125 3.5312 0.17188 5.1094s2.7656 2.2031 4.3828 2.7266l1.0156 0.34375-4.4297 4.4297-2.0312-2.0312c-0.60938-0.60938-1.6016-0.60938-2.2109 0-0.60937 0.60938-0.60937 1.6016 0 2.2109l2.0312 2.0312-7.7188 7.7266c-8.1484-8.6758-12.676-20.129-12.664-32.031zm69.031-5.9375c0.47266 1.2969 1.2422 2.4688 2.25 3.4141 0.78125 0.85938 1.6484 1.8359 1.6484 2.5234s-0.875 1.6641-1.6484 2.5234c-1.0078 0.94531-1.7773 2.1172-2.25 3.4141-0.25391 1.3984-0.17188 2.8359 0.23438 4.1953 0.23438 1.1016 0.49219 2.3438 0.17969 2.8984s-1.5625 0.96094-2.6406 1.3125c-1.3672 0.32422-2.6367 0.96875-3.7109 1.875-0.90625 1.0742-1.5508 2.3438-1.875 3.7109-0.35156 1.0859-0.78125 2.3438-1.3125 2.6406-0.53125 0.29688-1.7969 0.054688-2.8984-0.17969-1.3594-0.40625-2.7969-0.48828-4.1953-0.23438-1.2969 0.47266-2.4688 1.2422-3.4141 2.25-0.85938 0.78125-1.8359 1.6484-2.5234 1.6484s-1.6641-0.875-2.5234-1.6484c-0.94531-1.0078-2.1172-1.7773-3.4141-2.25-0.44531-0.11328-0.90625-0.16797-1.3672-0.16406-0.95312 0.03125-1.9023 0.16406-2.8281 0.39844-1.1016 0.23438-2.3438 0.49219-2.8984 0.17969s-0.96094-1.5625-1.3125-2.6406c-0.24609-0.83594-0.5625-1.6484-0.94531-2.4297l32.812-32.812c0.78125 0.37891 1.5938 0.69531 2.4297 0.94531 1.0859 0.35156 2.3438 0.78125 2.6406 1.3125s0.054688 1.7969-0.17969 2.8984c-0.41797 1.3672-0.50781 2.8125-0.25781 4.2188zm-44.312 11.875c-0.47266-1.2969-1.2422-2.4688-2.25-3.4141-0.78125-0.85938-1.6484-1.8359-1.6484-2.5234s0.875-1.6641 1.6484-2.5234c1.0078-0.94531 1.7773-2.1172 2.25-3.4141 0.25391-1.3984 0.17188-2.8359-0.23438-4.1953-0.23438-1.1016-0.49219-2.3438-0.17969-2.8984s1.5625-0.96094 2.6406-1.3125c1.3672-0.32422 2.6367-0.96875 3.7109-1.875 0.90625-1.0742 1.5508-2.3438 1.875-3.7109 0.35156-1.0859 0.78125-2.3438 1.3125-2.6406 0.53125-0.29688 1.7969-0.054688 2.8984 0.17969 1.3594 0.40625 2.7969 0.48828 4.1953 0.23438 1.2969-0.47266 2.4688-1.2422 3.4141-2.25 0.85938-0.78125 1.8359-1.6484 2.5234-1.6484s1.6641 0.875 2.5234 1.6484c0.94531 1.0078 2.1172 1.7773 3.4141 2.25 1.3984 0.25391 2.8359 0.17188 4.1953-0.23438 1.1016-0.23438 2.3438-0.49219 2.8984-0.17969s0.96094 1.5625 1.3125 2.6406c0.24609 0.83594 0.5625 1.6484 0.94531 2.4297l-32.812 32.812c-0.78125-0.37891-1.5938-0.69531-2.4297-0.94531-1.0859-0.35156-2.3438-0.78125-2.6406-1.3125s-0.054688-1.7969 0.17969-2.8984c0.41797-1.3672 0.50781-2.8125 0.25781-4.2188zm22.156 40.938c-11.902 0.011719-23.355-4.5156-32.031-12.664l7.6953-7.6953 2.0312 2.0312c0.29297 0.29297 0.6875 0.46094 1.1016 0.46094 0.41797 0 0.81641-0.16406 1.1094-0.46094 0.29297-0.29297 0.45703-0.69141 0.45703-1.1055 0-0.41406-0.16406-0.8125-0.45703-1.1055l-2.0312-2.0312 4.4297-4.4297c0.11719 0.32812 0.23437 0.67188 0.34375 1.0156 0.52344 1.625 1.1172 3.4609 2.7266 4.3828 1.6094 0.92187 3.4531 0.52344 5.1094 0.17187 0.88281-0.26953 1.8125-0.35937 2.7344-0.26562 0.80469 0.375 1.5312 0.90625 2.1328 1.5625 0.88672 0.90234 1.9336 1.6367 3.0859 2.1641v3.9062h-2.875c-0.86328 0-1.5625 0.69922-1.5625 1.5625s0.69922 1.5625 1.5625 1.5625h8.875c0.86328 0 1.5625-0.69922 1.5625-1.5625s-0.69922-1.5625-1.5625-1.5625h-2.875v-3.9062c1.1406-0.52344 2.1758-1.2539 3.0547-2.1484 0.60156-0.65625 1.3281-1.1875 2.1328-1.5625 0.92188-0.09375 1.8477-0.003906 2.7344 0.26563 1.6562 0.35156 3.5312 0.78125 5.1094-0.17188 1.5781-0.95312 2.2031-2.7656 2.7266-4.3828 0.10938-0.34375 0.22656-0.6875 0.34375-1.0156l4.4297 4.4297-2.0312 2.0312c-0.29297 0.29297-0.45703 0.69141-0.45703 1.1055 0 0.41406 0.16406 0.8125 0.45703 1.1055 0.29297 0.29688 0.69141 0.46094 1.1094 0.46094 0.41406 0 0.80859-0.16797 1.1016-0.46094l6.25-6.25c0.60937-0.60938 0.60937-1.6016 0-2.2109-0.60938-0.60937-1.6016-0.60937-2.2109 0l-2.0312 2.0312-4.4297-4.4297 1.0156-0.34375c1.625-0.52344 3.4609-1.1172 4.3828-2.7266 0.92188-1.6094 0.52344-3.4531 0.17188-5.1094-0.26953-0.88281-0.35938-1.8125-0.26562-2.7344 0.375-0.80469 0.90625-1.5312 1.5625-2.1328 0.91406-0.88672 1.6562-1.9375 2.1875-3.0938h3.9062v2.875c0 0.86328 0.69922 1.5625 1.5625 1.5625s1.5625-0.69922 1.5625-1.5625v-8.875c0-0.86328-0.69922-1.5625-1.5625-1.5625s-1.5625 0.69922-1.5625 1.5625v2.875h-3.9062c-0.52344-1.1406-1.2539-2.1758-2.1484-3.0547-0.65625-0.60156-1.1875-1.3281-1.5625-2.1328-0.09375-0.92188-0.003906-1.8516 0.26563-2.7344 0.35156-1.6562 0.78125-3.5312-0.17188-5.1094-0.95312-1.5781-2.7656-2.2031-4.3828-2.7266l-1.0156-0.34375 4.4297-4.4297 2.0312 2.0312c0.29297 0.29297 0.69531 0.45703 1.1094 0.45312 0.41406 0 0.80859-0.16406 1.1016-0.45312 0.29297-0.29297 0.45703-0.69141 0.45703-1.1055 0-0.41406-0.16406-0.8125-0.45703-1.1055l-2.0312-2.0312 7.6797-7.7266c8.3711 8.9453 12.91 20.812 12.641 33.062-0.26953 12.246-5.3242 23.902-14.082 32.473-8.7539 8.5664-20.52 13.367-32.77 13.371z"/>
  <path d="m36.57 54.891c2.3359 0.003906 4.3516-1.6445 4.8086-3.9375 0.45703-2.293-0.76562-4.5898-2.9258-5.4844-2.1562-0.89844-4.6484-0.14453-5.9492 1.7969-1.2969 1.9453-1.0469 4.5352 0.60547 6.1875 0.91406 0.92578 2.1602 1.4453 3.4609 1.4375zm-1.25-6.1406c0.33203-0.33203 0.78125-0.51562 1.25-0.51562 0.71484 0 1.3555 0.43359 1.6289 1.0938 0.26953 0.66016 0.11719 1.418-0.38672 1.9219-0.69922 0.66406-1.793 0.66406-2.4922 0-0.6875-0.69141-0.6875-1.8086 0-2.5z"/>
  <path d="m50 41.453c2.3398 0.003906 4.3516-1.6484 4.8086-3.9414 0.45703-2.293-0.76953-4.5898-2.9297-5.4844-2.1602-0.89453-4.6523-0.13672-5.9492 1.8086-1.2969 1.9453-1.0391 4.5352 0.61719 6.1875 0.91406 0.91797 2.1562 1.4336 3.4531 1.4297zm-1.25-6.1328c0.59375-0.59766 1.5273-0.6875 2.2305-0.22266 0.69922 0.46875 0.97266 1.3633 0.65234 2.1445-0.32031 0.77734-1.1484 1.2188-1.9727 1.0586-0.82812-0.16406-1.4258-0.88672-1.4258-1.7305 0-0.46875 0.18359-0.91797 0.51562-1.25z"/>
  <path d="m63.43 45.109c-2.3359-0.003906-4.3516 1.6445-4.8086 3.9375-0.45703 2.293 0.76562 4.5898 2.9258 5.4844 2.1562 0.89844 4.6484 0.14453 5.9492-1.7969 1.2969-1.9453 1.0469-4.5352-0.60547-6.1875-0.91406-0.92578-2.1602-1.4453-3.4609-1.4375zm1.25 6.1406c-0.69922 0.66406-1.793 0.66406-2.4922 0-0.50781-0.50391-0.66016-1.2656-0.38672-1.9258 0.27344-0.66016 0.91797-1.0898 1.6328-1.0898s1.3594 0.42969 1.6328 1.0898c0.27344 0.66016 0.12109 1.4219-0.38672 1.9258z"/>
  <path d="m50 58.547c-2.3398-0.003906-4.3516 1.6484-4.8086 3.9414-0.45703 2.293 0.76953 4.5898 2.9297 5.4844 2.1602 0.89453 4.6523 0.13672 5.9492-1.8086 1.2969-1.9453 1.0391-4.5352-0.61719-6.1875-0.91406-0.91797-2.1562-1.4336-3.4531-1.4297zm1.25 6.1328c-0.69141 0.6875-1.8086 0.6875-2.5 0-0.33203-0.33203-0.51562-0.78125-0.51562-1.25 0-0.97656 0.78906-1.7656 1.7656-1.7656s1.7656 0.78906 1.7656 1.7656c0 0.46875-0.18359 0.91797-0.51562 1.25z"/>
 </g>
</svg>
